<?xml version="1.0" standalone="no"?>
<!DOCTYPE svg PUBLIC "-//W3C//DTD SVG 20010904//EN"
 "http://www.w3.org/TR/2001/REC-SVG-20010904/DTD/svg10.dtd">
<svg version="1.0" xmlns="http://www.w3.org/2000/svg"
 width="512.000000pt" height="512.000000pt" viewBox="0 0 512.000000 512.000000"
 preserveAspectRatio="xMidYMid meet">

<g transform="translate(0.000000,512.000000) scale(0.100000,-0.100000)"
fill="#000000" stroke="none">
<path d="M2315 5109 c-479 -49 -913 -222 -1315 -523 -116 -86 -362 -330 -452
-447 -158 -204 -307 -471 -393 -704 -48 -128 -108 -366 -131 -520 -26 -168
-26 -541 0 -710 23 -151 83 -391 131 -521 87 -236 247 -518 409 -724 77 -97
299 -319 396 -396 206 -162 488 -322 724 -409 130 -48 370 -108 521 -131 148
-22 532 -26 670 -6 482 69 888 240 1265 530 103 80 334 309 416 412 161 204
323 491 409 724 48 130 108 370 131 521 14 90 18 179 18 355 0 176 -4 265 -18
355 -23 151 -83 391 -131 521 -87 236 -247 518 -409 724 -78 99 -300 320 -401
400 -358 284 -774 464 -1235 535 -126 19 -477 28 -605 14z m397 -295 l37 -6
72 -215 c77 -233 81 -264 40 -321 -36 -51 -74 -62 -215 -62 -205 0 -298 -31
-401 -135 -96 -95 -135 -199 -135 -358 0 -138 -18 -172 -125 -232 -67 -38
-184 -156 -223 -227 -42 -74 -70 -156 -83 -242 -5 -39 -11 -72 -13 -74 -2 -2
-79 46 -170 107 -217 145 -228 165 -172 309 19 48 38 115 41 147 14 126 -36
265 -130 364 -70 74 -146 114 -268 144 -53 13 -99 26 -103 29 -9 10 139 160
248 251 347 286 783 472 1213 515 108 11 335 14 387 6z m608 -126 c109 -38
313 -136 410 -195 111 -69 250 -173 250 -187 0 -7 -11 -45 -25 -86 -23 -68
-33 -81 -142 -194 -175 -180 -203 -245 -203 -473 0 -212 30 -304 135 -408 83
-84 201 -135 311 -135 53 0 111 -34 134 -80 17 -34 20 -59 20 -185 l0 -145
-34 -69 c-57 -112 -76 -181 -76 -271 0 -211 131 -382 335 -435 34 -8 101 -15
157 -15 54 0 98 -3 98 -6 0 -14 -77 -190 -123 -279 -294 -572 -839 -1003
-1468 -1159 -104 -26 -300 -59 -307 -51 -8 8 92 187 164 296 102 151 201 274
357 438 257 270 297 371 297 741 0 181 -2 205 -20 240 -35 68 -58 74 -285 80
-176 5 -207 9 -257 29 -81 32 -146 95 -219 213 -105 171 -224 269 -394 325
-68 22 -104 27 -231 31 l-152 4 -37 80 c-32 68 -38 90 -37 147 0 36 7 86 16
110 25 68 87 142 150 181 98 60 141 96 179 152 59 85 79 156 84 288 5 141 20
181 78 216 39 22 52 24 176 24 74 0 154 5 178 11 160 37 296 169 337 329 25
98 15 187 -40 350 -25 74 -46 140 -46 146 0 14 86 -8 230 -58z m978 -686 c214
-260 379 -587 455 -903 49 -198 61 -309 62 -534 0 -158 -5 -240 -19 -332 l-19
-123 -131 0 c-149 0 -185 11 -223 69 -35 53 -30 102 21 212 57 122 66 169 66
354 0 235 -27 323 -135 430 -83 84 -201 135 -311 135 -53 0 -111 34 -134 80
-17 33 -20 59 -20 154 0 63 5 127 11 142 5 16 63 82 128 149 87 90 125 137
147 183 16 33 31 61 34 61 3 0 34 -35 68 -77z m-3420 -276 c105 -27 135 -43
162 -89 36 -58 36 -92 1 -177 -18 -43 -36 -103 -40 -133 -17 -129 26 -270 111
-363 27 -29 170 -132 385 -276 l343 -228 87 -173 c87 -171 87 -173 87 -247 1
-93 -18 -131 -104 -215 -99 -96 -120 -157 -81 -233 11 -20 67 -84 126 -142
141 -139 146 -150 156 -325 10 -173 15 -210 45 -357 27 -127 89 -319 130 -401
l26 -50 -61 6 c-195 21 -462 102 -676 206 -380 186 -699 471 -929 831 -64 100
-177 333 -216 445 -166 476 -171 987 -15 1461 46 140 146 359 208 456 l36 57
63 -15 c35 -8 105 -26 156 -38z m1494 -1346 c81 -30 146 -93 219 -212 145
-236 325 -343 597 -355 l122 -6 0 -93 c0 -189 -31 -262 -178 -417 -262 -277
-461 -541 -554 -732 -12 -25 -25 -45 -29 -45 -11 0 -86 236 -103 325 -21 104
-36 243 -36 326 0 158 -55 296 -164 416 -36 39 -66 74 -66 78 0 3 13 23 30 43
16 20 42 66 58 102 75 166 69 317 -18 506 -22 48 -40 89 -40 92 0 11 109 -8
162 -28z"/>
</g>
</svg>
